<svg width="1035" height="1128" viewBox="0 0 1035 1128" fill="none" xmlns="http://www.w3.org/2000/svg">
<path opacity="0.6" d="M28.8561 -411.987C52.8498 -444.635 88.8403 -461.819 136.828 -465.255C224.233 -472.129 273.934 -430.889 285.931 -341.536C339.06 17.5942 397.33 321.738 459.028 570.895L834.357 -145.647C868.634 -210.943 911.48 -245.31 962.895 -248.746C1038.3 -253.901 1084.58 -205.788 1103.43 -104.407C1146.27 124.13 1201.12 318.301 1266.24 483.26C1310.8 46.8057 1386.21 -267.648 1492.47 -461.819C1518.18 -509.932 1555.88 -533.988 1605.58 -537.425C1645 -540.861 1680.99 -528.833 1713.55 -503.058C1746.12 -477.283 1763.25 -444.636 1766.68 -405.114C1768.4 -374.184 1763.25 -348.409 1749.54 -322.634C1682.7 -198.915 1627.86 9.00275 1583.3 297.681C1540.46 577.768 1525.03 795.995 1535.31 952.363C1538.74 995.321 1531.89 1033.12 1514.75 1065.77C1494.18 1103.58 1463.33 1124.2 1423.92 1127.63C1379.36 1131.07 1333.08 1110.45 1288.52 1064.05C1129.14 900.813 1002.31 656.811 909.766 332.048C798.367 551.994 716.103 716.953 662.974 826.925C561.858 1021.1 476.166 1120.76 404.186 1125.91C357.912 1129.35 318.494 1089.83 284.217 1007.35C196.812 782.249 102.551 347.513 1.43496 -296.859C-3.70654 -341.536 4.86246 -381.057 28.8561 -411.987Z" fill="white"/>
</svg>
